<svg xmlns="http://www.w3.org/2000/svg" width="32" height="32"><path d="M7.295 16.323c.073-.086.147-.165.225-.238l.001-.001.86-.899c.025-.025.033-.041.055-.065.055-.06.123-.113.176-.176l.287-.306c.041-.041.079-.074.116-.116l.4-.417c.025-.025.032-.041.055-.065.134-.143.277-.276.405-.421.054-.062.128-.118.181-.181a.38.38 0 0 1 .052-.06l2.138-2.219.06-.06c.022-.022.033-.041.055-.065.022-.025.076-.076.116-.116a.548.548 0 0 0 .059-.059l.001-.001c.023-.027.03-.038.055-.065l.225-.241c.041-.038.079-.074.116-.116l.4-.416c.025-.025.033-.041.055-.066.134-.143.277-.276.405-.421.055-.063.123-.118.181-.179l.405-.421c.025-.025.032-.041.055-.066.134-.143.274-.273.4-.416.02-.023.041-.041.06-.06l.465-.482.055-.055.637-.663a1.92 1.92 0 0 1 .17-.178l.001-.001.517-.542.116-.116.92-.963c.041-.041.082-.079.121-.121l.344-.361c.156-.156.304-.323.46-.477l.116-.125c.082-.082.153-.161.233-.241l.287-.296c.023-.025.03-.041.054-.065l.462-.477c.038-.041.083-.079.121-.121.126-.143.263-.287.4-.417.025-.025.032-.041.054-.065.454-.383 1.524-1.85 3.049-.34 1.04.989.265 2.294-.46 2.936-.016.02-.032.033-.05.053l-.34.348c-.02.022-.025.033-.047.055l-.774.799c-.02.022-.023.032-.043.053l-.43.452-.099.099-.09.099-.099.099-.573.602-.101.098-.817.851c-.023.023-.027.035-.047.055-.063.073-.134.125-.195.201s-.134.128-.191.197c-.057.069-.131.134-.195.201l-.573.602c-.017.019-.03.03-.047.047l-.624.649c-.02.022-.023.032-.043.052a.41.41 0 0 1-.051.051l-.001.001-.486.503c-.017.017-.032.03-.047.047l-.627.655c-.06.076-.129.131-.195.201l-.624.649c-.02.023-.025.033-.047.055l-.959.993c-.098.098-.189.209-.287.306l-.143.143c-.015.021-.031.038-.047.057l-.194.202c-.062.07-.134.123-.191.197s-.134.126-.197.199c-.062.073-.129.134-.194.202l-.96 1.004c.03.037.062.069.095.1l.001.001c.092.105.197.201.287.301l.972 1.004c.069.068.143.132.202.202l.976 1.004c.065.065.143.132.198.198.019.022.022.03.043.052l.348.357c.134.134.258.265.391.4.035.035.068.063.099.099s.023.03.043.052l.052.052c.068.066.134.129.198.198l.387.405c.143.143.261.268.396.405l.194.202c.065.065.143.131.198.198l.287.301c.02.023.025.033.047.055l.052.052c.134.134.258.265.391.4l.143.15c.082.085.178.166.254.254l.387.405c.134.134.258.265.393.4.033.033.068.065.098.099.092.103.202.198.287.301l.096.103.099.099.198.206c.134.134.257.265.391.4.069.069.125.134.194.202s.143.134.202.202c.019.022.022.03.043.052.082.083.172.162.249.249.155.176.324.341.49.507l.389.4c.076.09.315.331.393.408l.785.805c.32.328 1.546 1.577.329 2.806-.853.86-2.182.517-2.913-.206l-.298-.306c-.025-.025-.032-.041-.054-.066l-.526-.532c-.025-.025-.033-.041-.054-.065-.096-.105-.205-.201-.298-.306a.65.65 0 0 0-.058-.059l-.001-.001c-.132-.132-.413-.407-.522-.537l-1.119-1.147c-.025-.025-.033-.038-.055-.065l-.585-.602a.548.548 0 0 0-.059-.059l-.001-.001c-.106-.107-.446-.443-.525-.542a2.325 2.325 0 0 0-.179-.179l-.002-.002c-.218-.218-.43-.446-.645-.662a.53.53 0 0 1-.054-.063l-.001-.002c-.087-.105-.203-.189-.287-.296s-.465-.457-.589-.607l-.529-.537a.407.407 0 0 1-.051-.059l-.001-.001-.533-.542c-.043-.043-.071-.082-.116-.125a2.834 2.834 0 0 1-.23-.236l-.003-.004a1.146 1.146 0 0 0-.114-.117l-.001-.001-.705-.717c-.043-.043-.071-.082-.116-.125-.161-.162-.311-.321-.473-.482-.041-.041-.069-.079-.112-.121l-.353-.361c-.041-.041-.074-.076-.116-.116l-.821-.847c-.082-.082-.15-.159-.233-.241l-.121-.121c-.043-.043-.073-.082-.116-.125-.161-.161-.309-.317-.469-.477L7.293 16.32z" fill="#FFF"/></svg>