<svg aria-hidden="true" style="width:0;height:0;position:absolute;overflow:hidden" xmlns="http://www.w3.org/2000/svg"><defs><symbol id="icon-arrow-left2" viewBox="0 0 18 32"><path d="M0 15.933c.08.094.16.179.245.26l.001.001.94.982c.028.027.036.044.061.07.061.066.135.124.193.193l.313.334c.044.044.086.081.128.127l.437.456c.027.027.034.044.059.07.147.157.302.301.443.46.059.067.138.128.196.197a.615.615 0 0 0 .057.066l2.332 2.424.066.066c.028.027.036.044.061.07l.127.127a.641.641 0 0 1 .063.065l.001.001c.027.03.033.041.063.07l.254.263c.042.042.085.081.127.127l.437.454c.027.028.034.045.061.072.147.157.301.301.442.46.061.069.135.128.197.196l.442.46c.027.027.034.045.061.072.147.157.299.298.437.454a.665.665 0 0 0 .065.065l.001.001.507.526.061.061.694.725c.06.07.122.134.188.194l.002.002.564.592.127.127 1.005 1.052c.045.045.089.086.132.132l.376.395c.171.171.33.352.503.521l.127.136c.089.089.164.175.254.263l.313.324c.027.027.033.044.061.07l.503.521c.044.044.092.086.132.132.139.157.288.313.437.456.027.027.034.044.061.07.496.418 1.665 2.022 3.33.371 1.137-1.081.29-2.506-.501-3.207-.019-.022-.034-.036-.056-.058l-.371-.381c-.022-.023-.027-.036-.052-.061l-.846-.872c-.02-.023-.024-.034-.047-.058l-.47-.493-.108-.108-.099-.108-.108-.108-.626-.658-.108-.107-.893-.93c-.025-.025-.03-.038-.052-.061-.069-.08-.147-.136-.213-.219s-.147-.139-.21-.215-.141-.147-.211-.219l-.626-.658-.052-.052-.691-.709c-.022-.023-.025-.034-.047-.056l-.056-.056-.523-.55-.052-.052-.684-.716c-.067-.083-.143-.142-.213-.219l-.681-.709c-.022-.025-.027-.036-.052-.061L7.991 18.48c-.108-.107-.208-.229-.313-.334l-.157-.157c-.024-.025-.028-.038-.052-.061l-.211-.221c-.067-.077-.157-.135-.21-.215s-.146-.138-.213-.218-.141-.147-.211-.221l-1.051-1.096c.034-.04.069-.075.106-.109l.001-.001c.1-.114.213-.219.313-.329l1.062-1.096c.074-.074.157-.144.221-.221l1.067-1.096c.07-.07.157-.144.216-.216.02-.024.024-.033.047-.056l.381-.39c.147-.147.28-.29.428-.437.038-.038.072-.069.108-.108s.024-.033.047-.056l.056-.056c.072-.072.147-.141.216-.216l.423-.442c.149-.157.283-.293.432-.442l.211-.221c.07-.07.157-.143.216-.216l.313-.329c.022-.025.027-.036.052-.061l.056-.056c.147-.147.28-.29.428-.437l.157-.164c.089-.092.193-.182.277-.277l.423-.442c.147-.147.28-.29.428-.437.036-.036.075-.07.108-.108.1-.113.221-.216.313-.329l.103-.113.108-.108.216-.226c.147-.147.28-.29.428-.437.075-.075.136-.146.211-.221s.157-.146.221-.221c.02-.024.024-.033.047-.056.089-.091.188-.177.273-.272.169-.193.354-.373.536-.554l.428-.437c.083-.099.343-.362.428-.446l.858-.88c.351-.359 1.688-1.723.36-3.066-.93-.94-2.384-.564-3.182.226l-.324.334c-.028.028-.034.044-.061.072l-.573.581c-.028.028-.036.044-.061.07-.105.114-.222.219-.324.334a.665.665 0 0 1-.065.065l-.001.001c-.143.144-.449.445-.569.587l-1.222 1.253c-.028.028-.036.042-.061.07l-.639.658-.066.066c-.117.117-.489.484-.575.592-.063.07-.127.135-.194.195l-.002.002c-.238.238-.47.487-.705.724a.495.495 0 0 0-.06.069l-.001.002c-.097.114-.222.207-.313.324s-.506.5-.642.662l-.578.587a.492.492 0 0 0-.057.064l-.001.001-.581.592c-.047.047-.08.089-.127.136-.09.082-.174.168-.252.258l-.003.004c-.04.046-.081.088-.124.127l-.001.001-.771.783c-.049.047-.08.089-.127.136-.177.177-.341.351-.517.526-.045.045-.077.086-.122.132l-.381.377-.127.127-.897.926c-.089.089-.166.174-.254.263-.047.045-.086.086-.132.132s-.08.089-.127.136c-.175.175-.338.346-.514.521z"/></symbol><symbol id="icon-arrow-right2" viewBox="0 0 18 32"><path d="M18.477 15.933a3.4 3.4 0 0 1-.246.26l-.001.001-.94.982c-.028.027-.036.044-.061.07-.061.066-.135.124-.193.193l-.313.334c-.044.044-.086.081-.127.127l-.437.456c-.028.027-.034.044-.061.07-.147.157-.302.301-.442.46-.059.067-.139.128-.197.197a.608.608 0 0 1-.056.066l-2.337 2.424c-.025.023-.042.041-.066.066s-.036.044-.061.07l-.127.127a.797.797 0 0 0-.065.065l-.001.001c-.025.03-.033.041-.061.07l-.246.263c-.044.042-.086.081-.127.127l-.437.454c-.028.028-.036.045-.061.072-.147.157-.302.301-.442.46-.061.069-.135.128-.197.196l-.442.46c-.027.027-.034.045-.061.072-.147.157-.299.298-.437.454-.022.025-.044.044-.066.066l-.507.526-.061.061-.695.725c-.06.07-.121.134-.186.194l-.002.001-.564.592-.127.127-1.005 1.052c-.045.045-.089.086-.132.132l-.376.395c-.171.171-.332.352-.503.521l-.127.136c-.089.089-.166.175-.255.263l-.313.324c-.025.027-.033.044-.059.07l-.504.521c-.042.044-.091.086-.132.132a7.546 7.546 0 0 1-.437.456c-.027.027-.034.044-.059.07-.496.418-1.665 2.022-3.331.371-1.135-1.081-.29-2.506.503-3.207.017-.022.034-.036.055-.058l.371-.381c.022-.023.027-.036.052-.061l.846-.872c.022-.023.025-.034.047-.058l.47-.493.108-.108.099-.108.108-.108.626-.658.11-.107.893-.93c.025-.025.03-.038.052-.061.069-.08.147-.136.213-.219s.147-.139.208-.215.143-.147.213-.219l.626-.658.052-.052.681-.709c.022-.023.025-.034.047-.056a.592.592 0 0 1 .056-.056l.001-.001.531-.55.052-.052.684-.716c.066-.083.141-.142.213-.219l.681-.709c.022-.025.027-.036.052-.061l1.048-1.085c.107-.107.207-.229.313-.334l.157-.157a.638.638 0 0 1 .052-.061l.211-.221c.067-.077.147-.135.208-.215s.147-.138.215-.218.141-.147.211-.221l1.049-1.096a1.2 1.2 0 0 0-.104-.109l-.001-.001c-.1-.114-.215-.219-.313-.329l-1.062-1.096c-.075-.074-.157-.144-.221-.221l-1.066-1.096c-.07-.07-.157-.144-.216-.216-.02-.024-.024-.033-.047-.056l-.381-.39c-.147-.147-.282-.29-.428-.437-.038-.038-.074-.069-.108-.108s-.025-.033-.047-.056l-.056-.056c-.074-.072-.147-.141-.216-.216l-.423-.442c-.157-.157-.285-.293-.432-.442l-.211-.221c-.07-.07-.157-.143-.216-.216l-.313-.329c-.022-.025-.027-.036-.052-.061l-.056-.056c-.147-.147-.282-.29-.428-.437L6.354 9.2c-.089-.092-.194-.182-.277-.277l-.423-.442c-.147-.147-.282-.29-.429-.437-.036-.036-.074-.07-.106-.108-.1-.113-.221-.216-.313-.329l-.105-.113-.108-.108-.216-.226c-.146-.147-.28-.29-.428-.437-.075-.075-.136-.146-.211-.221s-.157-.146-.221-.221c-.02-.024-.023-.033-.047-.056-.089-.091-.188-.177-.272-.272-.169-.193-.354-.373-.536-.554l-.426-.437a11.48 11.48 0 0 0-.429-.446l-.858-.88C.6 3.277-.739 1.913.589.57c.932-.94 2.384-.564 3.182.226l.326.334c.027.028.034.044.059.072l.575.581c.027.028.036.044.059.07.105.114.224.219.326.334a.985.985 0 0 0 .064.065l.001.001c.144.144.451.445.57.587l1.222 1.253c.028.028.036.042.061.07l.639.658a.797.797 0 0 0 .065.065l.001.001c.116.117.487.484.573.592.063.07.127.134.195.195l.002.002c.238.238.47.487.705.724a.802.802 0 0 1 .06.069l.001.002c.096.114.222.207.313.324s.507.5.644.662l.578.587c.021.02.039.041.055.064l.001.001.583.592c.047.047.078.089.127.136a3.4 3.4 0 0 1 .252.258l.003.004c.039.047.08.088.124.127l.001.001.771.783c.047.047.078.089.127.136.175.177.34.351.517.526.045.045.075.086.122.132l.385.395c.044.045.081.083.127.127l.897.926c.089.089.164.174.254.263l.132.132c.047.047.08.089.127.136.175.175.337.346.512.521z"/></symbol><symbol id="icon-close" viewBox="0 0 32 32"><path d="M18.828 16 31.414 3.415A2 2 0 0 0 28.585.586L16 13.172 3.415.586A2 2 0 0 0 .586 3.415L13.172 16 .586 28.585a2 2 0 0 0 2.829 2.829L16 18.828l12.585 12.586a2 2 0 0 0 2.829-2.829L18.828 16z"/></symbol><symbol id="icon-up" viewBox="0 0 32 32"><path d="M15.925 7.017c.092.078.175.156.253.239l.001.001.955.914c.026.027.043.035.069.059.064.059.12.131.187.187l.325.305c.043.043.079.084.123.123l.443.425c.026.027.043.034.069.059.152.143.293.294.448.43.066.058.125.136.192.192a.43.43 0 0 1 .064.055l2.359 2.273.064.064c.024.023.043.035.069.059s.081.081.123.123c.02.023.041.044.063.063l.001.001c.029.024.04.032.069.059l.256.239c.041.043.079.084.123.123l.442.425c.027.027.044.035.07.059.152.143.293.294.448.43.067.059.125.131.19.192l.448.43c.026.026.044.034.07.059.152.143.29.291.442.425.024.021.043.043.064.064l.512.494.059.059.705.677c.069.058.131.118.189.181l.001.001.576.549.123.123 1.024.978c.044.044.084.087.128.128l.384.366c.166.166.343.323.507.489l.133.123c.087.087.171.162.256.248l.315.305c.026.024.043.032.069.058l.507.491c.043.041.084.088.128.128.152.134.305.28.443.425.026.026.043.034.069.058.407.483 1.967 1.62.361 3.241-1.051 1.105-2.438.282-3.121-.489-.021-.017-.035-.034-.056-.053l-.37-.361c-.023-.021-.035-.026-.059-.05l-.849-.823c-.023-.021-.034-.024-.056-.046l-.48-.457-.105-.105-.105-.096-.105-.105-.64-.609-.104-.107-.905-.869c-.024-.024-.037-.029-.059-.05-.078-.067-.133-.143-.213-.207s-.136-.143-.209-.203-.143-.139-.213-.207l-.64-.609c-.02-.018-.032-.032-.05-.05l-.69-.663c-.023-.021-.034-.024-.055-.046a.459.459 0 0 1-.054-.054l-.001-.001-.535-.517c-.018-.018-.032-.034-.05-.05l-.696-.666c-.081-.064-.139-.137-.213-.207l-.69-.663c-.024-.021-.035-.026-.059-.05l-1.056-1.019c-.104-.104-.222-.201-.325-.305l-.152-.152c-.022-.016-.041-.033-.06-.05l-.215-.206c-.075-.066-.131-.143-.209-.203s-.134-.143-.212-.209-.143-.137-.215-.206l-1.067-1.021a1.133 1.133 0 0 0-.106.101l-.001.001c-.111.098-.213.209-.32.305l-1.067 1.033c-.072.073-.14.152-.215.215l-1.067 1.038c-.069.069-.14.152-.21.21-.023.02-.032.023-.055.046l-.379.37c-.143.143-.282.274-.425.416-.037.037-.067.072-.105.105s-.032.024-.055.046l-.055.055c-.07.072-.137.143-.21.21l-.43.411c-.152.152-.285.277-.43.421l-.215.206c-.069.069-.139.152-.21.21l-.32.305c-.024.021-.035.026-.059.05l-.055.055c-.143.143-.282.274-.425.416l-.16.152c-.09.087-.177.189-.27.27l-.43.411c-.143.143-.282.274-.425.418-.035.035-.069.072-.105.104-.11.098-.21.215-.32.305l-.11.102-.105.105-.219.21c-.143.142-.282.273-.425.416-.073.073-.142.133-.215.206s-.142.152-.215.215c-.023.02-.032.023-.055.046-.088.087-.172.183-.265.265-.187.165-.363.344-.539.521l-.425.414c-.096.081-.352.335-.434.418l-.856.835c-.349.34-1.676 1.643-2.983.35-.914-.907-.549-2.319.219-3.096l.325-.317c.027-.026.043-.034.07-.058l.565-.559c.027-.026.043-.035.069-.058.111-.102.213-.218.325-.317a.616.616 0 0 0 .063-.062l.001-.001c.14-.14.433-.439.571-.555l1.219-1.189c.027-.027.041-.035.069-.059l.64-.622a.624.624 0 0 0 .063-.063l.001-.001c.114-.113.471-.474.576-.558.068-.061.131-.124.19-.19l.002-.002c.232-.232.474-.457.704-.686a.62.62 0 0 1 .067-.058l.002-.001c.111-.093.201-.216.315-.305s.486-.494.645-.626l.571-.562a.408.408 0 0 1 .063-.054l.001-.001.576-.567c.046-.046.087-.076.133-.123.081-.088.164-.169.251-.245l.004-.003c.045-.038.086-.078.124-.121l.001-.001.762-.75c.046-.046.087-.076.133-.123.172-.171.341-.331.512-.503.044-.044.084-.073.128-.119l.384-.375c.044-.043.081-.079.123-.123l.9-.873c.087-.087.169-.16.256-.247l.128-.128c.046-.046.087-.078.133-.123.171-.171.337-.328.507-.498z"/></symbol></defs></svg>