<!-- Generated by IcoMoon.io -->
<svg version="1.1" xmlns="http://www.w3.org/2000/svg" width="32" height="32" viewBox="0 0 32 32">
<path d="M7.295 16.323c0.073-0.086 0.147-0.165 0.225-0.238l0.001-0.001 0.86-0.899c0.025-0.025 0.033-0.041 0.055-0.065 0.055-0.060 0.123-0.113 0.176-0.176l0.287-0.306c0.041-0.041 0.079-0.074 0.116-0.116l0.4-0.417c0.025-0.025 0.032-0.041 0.055-0.065 0.134-0.143 0.277-0.276 0.405-0.421 0.054-0.062 0.128-0.118 0.181-0.181 0.016-0.023 0.033-0.042 0.052-0.060v0l2.138-2.219c0.023-0.022 0.038-0.038 0.060-0.060s0.033-0.041 0.055-0.065c0.022-0.025 0.076-0.076 0.116-0.116 0.022-0.019 0.041-0.038 0.059-0.059l0.001-0.001c0.023-0.027 0.030-0.038 0.055-0.065l0.225-0.241c0.041-0.038 0.079-0.074 0.116-0.116l0.4-0.416c0.025-0.025 0.033-0.041 0.055-0.066 0.134-0.143 0.277-0.276 0.405-0.421 0.055-0.063 0.123-0.118 0.181-0.179l0.405-0.421c0.025-0.025 0.032-0.041 0.055-0.066 0.134-0.143 0.274-0.273 0.4-0.416 0.020-0.023 0.041-0.041 0.060-0.060l0.465-0.482 0.055-0.055 0.637-0.663c0.054-0.065 0.111-0.123 0.17-0.178l0.001-0.001 0.517-0.542 0.116-0.116 0.92-0.963c0.041-0.041 0.082-0.079 0.121-0.121l0.344-0.361c0.156-0.156 0.304-0.323 0.46-0.477l0.116-0.125c0.082-0.082 0.153-0.161 0.233-0.241l0.287-0.296c0.023-0.025 0.030-0.041 0.054-0.065l0.462-0.477c0.038-0.041 0.083-0.079 0.121-0.121 0.126-0.143 0.263-0.287 0.4-0.417 0.025-0.025 0.032-0.041 0.054-0.065 0.454-0.383 1.524-1.85 3.049-0.34 1.040 0.989 0.265 2.294-0.46 2.936-0.016 0.020-0.032 0.033-0.050 0.053l-0.34 0.348c-0.020 0.022-0.025 0.033-0.047 0.055l-0.774 0.799c-0.020 0.022-0.023 0.032-0.043 0.053l-0.43 0.452-0.099 0.099-0.090 0.099-0.099 0.099-0.573 0.602-0.101 0.098-0.817 0.851c-0.023 0.023-0.027 0.035-0.047 0.055-0.063 0.073-0.134 0.125-0.195 0.201s-0.134 0.128-0.191 0.197c-0.057 0.069-0.131 0.134-0.195 0.201l-0.573 0.602c-0.017 0.019-0.030 0.030-0.047 0.047l-0.624 0.649c-0.020 0.022-0.023 0.032-0.043 0.052-0.016 0.019-0.033 0.036-0.051 0.051l-0.001 0.001-0.486 0.503c-0.017 0.017-0.032 0.030-0.047 0.047l-0.627 0.655c-0.060 0.076-0.129 0.131-0.195 0.201l-0.624 0.649c-0.020 0.023-0.025 0.033-0.047 0.055l-0.959 0.993c-0.098 0.098-0.189 0.209-0.287 0.306l-0.143 0.143c-0.015 0.021-0.031 0.038-0.047 0.057l-0.194 0.202c-0.062 0.070-0.134 0.123-0.191 0.197s-0.134 0.126-0.197 0.199c-0.062 0.073-0.129 0.134-0.194 0.202l-0.96 1.004c0.030 0.037 0.062 0.069 0.095 0.1l0.001 0.001c0.092 0.105 0.197 0.201 0.287 0.301l0.972 1.004c0.069 0.068 0.143 0.132 0.202 0.202l0.976 1.004c0.065 0.065 0.143 0.132 0.198 0.198 0.019 0.022 0.022 0.030 0.043 0.052l0.348 0.357c0.134 0.134 0.258 0.265 0.391 0.4 0.035 0.035 0.068 0.063 0.099 0.099s0.023 0.030 0.043 0.052c0.021 0.022 0.033 0.033 0.052 0.052 0.068 0.066 0.134 0.129 0.198 0.198l0.387 0.405c0.143 0.143 0.261 0.268 0.396 0.405l0.194 0.202c0.065 0.065 0.143 0.131 0.198 0.198l0.287 0.301c0.020 0.023 0.025 0.033 0.047 0.055l0.052 0.052c0.134 0.134 0.258 0.265 0.391 0.4l0.143 0.15c0.082 0.085 0.178 0.166 0.254 0.254l0.387 0.405c0.134 0.134 0.258 0.265 0.393 0.4 0.033 0.033 0.068 0.065 0.098 0.099 0.092 0.103 0.202 0.198 0.287 0.301l0.096 0.103 0.099 0.099 0.198 0.206c0.134 0.134 0.257 0.265 0.391 0.4 0.069 0.069 0.125 0.134 0.194 0.202s0.143 0.134 0.202 0.202c0.019 0.022 0.022 0.030 0.043 0.052 0.082 0.083 0.172 0.162 0.249 0.249 0.155 0.176 0.324 0.341 0.49 0.507l0.389 0.4c0.076 0.090 0.315 0.331 0.393 0.408l0.785 0.805c0.32 0.328 1.546 1.577 0.329 2.806-0.853 0.86-2.182 0.517-2.913-0.206l-0.298-0.306c-0.025-0.025-0.032-0.041-0.054-0.066l-0.526-0.532c-0.025-0.025-0.033-0.041-0.054-0.065-0.096-0.105-0.205-0.201-0.298-0.306-0.019-0.022-0.038-0.041-0.058-0.059l-0.001-0.001c-0.132-0.132-0.413-0.407-0.522-0.537l-1.119-1.147c-0.025-0.025-0.033-0.038-0.055-0.065l-0.585-0.602c-0.019-0.022-0.038-0.041-0.059-0.059l-0.001-0.001c-0.106-0.107-0.446-0.443-0.525-0.542-0.057-0.064-0.117-0.123-0.179-0.179l-0.002-0.002c-0.218-0.218-0.43-0.446-0.645-0.662-0.020-0.020-0.038-0.041-0.054-0.063l-0.001-0.002c-0.087-0.105-0.203-0.189-0.287-0.296s-0.465-0.457-0.589-0.607l-0.529-0.537c-0.019-0.018-0.036-0.038-0.051-0.059l-0.001-0.001-0.533-0.542c-0.043-0.043-0.071-0.082-0.116-0.125-0.083-0.076-0.159-0.154-0.23-0.236l-0.003-0.004c-0.036-0.042-0.073-0.081-0.114-0.117l-0.001-0.001-0.705-0.717c-0.043-0.043-0.071-0.082-0.116-0.125-0.161-0.162-0.311-0.321-0.473-0.482-0.041-0.041-0.069-0.079-0.112-0.121l-0.353-0.361c-0.041-0.041-0.074-0.076-0.116-0.116l-0.821-0.847c-0.082-0.082-0.15-0.159-0.233-0.241l-0.121-0.121c-0.043-0.043-0.073-0.082-0.116-0.125-0.161-0.161-0.309-0.317-0.469-0.477l-2.334-2.404z"></path>
</svg>
