<!-- Generated by IcoMoon.io -->
<svg version="1.1" xmlns="http://www.w3.org/2000/svg" width="32" height="32" viewBox="0 0 32 32">
<path d="M20.678 15.917c-0.073-0.086-0.147-0.165-0.225-0.238l-0.001-0.001-0.86-0.899c-0.025-0.025-0.033-0.041-0.055-0.065-0.055-0.060-0.123-0.113-0.176-0.176l-0.287-0.306c-0.041-0.041-0.079-0.074-0.116-0.116l-0.4-0.417c-0.025-0.025-0.032-0.041-0.055-0.065-0.134-0.143-0.277-0.276-0.405-0.421-0.054-0.062-0.128-0.118-0.181-0.181-0.016-0.023-0.033-0.042-0.052-0.060v0l-2.138-2.219c-0.023-0.022-0.038-0.038-0.060-0.060s-0.033-0.041-0.055-0.065c-0.022-0.025-0.076-0.076-0.116-0.116-0.022-0.019-0.041-0.038-0.059-0.059l-0.001-0.001c-0.023-0.027-0.030-0.038-0.055-0.065l-0.225-0.241c-0.041-0.038-0.079-0.074-0.116-0.116l-0.4-0.416c-0.025-0.025-0.033-0.041-0.055-0.066-0.134-0.143-0.277-0.276-0.405-0.421-0.055-0.063-0.123-0.118-0.181-0.179l-0.405-0.421c-0.025-0.025-0.032-0.041-0.055-0.066-0.134-0.143-0.274-0.273-0.4-0.416-0.020-0.023-0.041-0.041-0.060-0.060l-0.465-0.482-0.055-0.055-0.637-0.663c-0.054-0.065-0.111-0.123-0.17-0.178l-0.001-0.001-0.517-0.542-0.116-0.116-0.92-0.963c-0.041-0.041-0.082-0.079-0.121-0.121l-0.344-0.361c-0.156-0.156-0.304-0.323-0.46-0.477l-0.116-0.125c-0.082-0.082-0.153-0.161-0.233-0.241l-0.287-0.296c-0.023-0.025-0.030-0.041-0.054-0.065l-0.462-0.477c-0.038-0.041-0.083-0.079-0.121-0.121-0.126-0.143-0.263-0.287-0.4-0.417-0.025-0.025-0.032-0.041-0.054-0.065-0.454-0.383-1.524-1.85-3.049-0.34-1.040 0.989-0.265 2.294 0.46 2.936 0.016 0.020 0.032 0.033 0.050 0.053l0.34 0.348c0.020 0.022 0.025 0.033 0.047 0.055l0.774 0.799c0.020 0.022 0.023 0.032 0.043 0.053l0.43 0.452 0.099 0.099 0.090 0.099 0.099 0.099 0.573 0.602 0.101 0.098 0.817 0.851c0.023 0.023 0.027 0.035 0.047 0.055 0.063 0.073 0.134 0.125 0.195 0.201s0.134 0.128 0.191 0.197c0.057 0.069 0.131 0.134 0.195 0.201l0.573 0.602c0.017 0.019 0.030 0.030 0.047 0.047l0.624 0.649c0.020 0.022 0.023 0.032 0.043 0.052 0.016 0.019 0.033 0.036 0.051 0.051l0.001 0.001 0.486 0.503c0.017 0.017 0.032 0.030 0.047 0.047l0.627 0.655c0.060 0.076 0.129 0.131 0.195 0.201l0.624 0.649c0.020 0.023 0.025 0.033 0.047 0.055l0.959 0.993c0.098 0.098 0.189 0.209 0.287 0.306l0.143 0.143c0.015 0.021 0.031 0.038 0.047 0.057l0.194 0.202c0.062 0.070 0.134 0.123 0.191 0.197s0.134 0.126 0.197 0.199c0.062 0.073 0.129 0.134 0.194 0.202l0.96 1.004c-0.030 0.037-0.062 0.069-0.095 0.1l-0.001 0.001c-0.092 0.105-0.197 0.201-0.287 0.301l-0.972 1.004c-0.069 0.068-0.143 0.132-0.202 0.202l-0.976 1.004c-0.065 0.065-0.143 0.132-0.198 0.198-0.019 0.022-0.022 0.030-0.043 0.052l-0.348 0.357c-0.134 0.134-0.258 0.265-0.391 0.4-0.035 0.035-0.068 0.063-0.099 0.099s-0.023 0.030-0.043 0.052c-0.021 0.022-0.033 0.033-0.052 0.052-0.068 0.066-0.134 0.129-0.198 0.198l-0.386 0.405c-0.143 0.143-0.261 0.268-0.396 0.405l-0.194 0.202c-0.065 0.065-0.143 0.131-0.198 0.198l-0.287 0.301c-0.020 0.023-0.025 0.033-0.047 0.055l-0.052 0.052c-0.134 0.134-0.258 0.265-0.391 0.4l-0.143 0.15c-0.082 0.085-0.178 0.166-0.254 0.254l-0.386 0.405c-0.134 0.134-0.258 0.265-0.393 0.4-0.033 0.033-0.068 0.065-0.098 0.099-0.092 0.103-0.202 0.198-0.287 0.301l-0.096 0.103-0.099 0.099-0.198 0.206c-0.134 0.134-0.257 0.265-0.391 0.4-0.069 0.069-0.125 0.134-0.194 0.202s-0.143 0.134-0.202 0.202c-0.019 0.022-0.022 0.030-0.043 0.052-0.082 0.083-0.172 0.162-0.249 0.249-0.155 0.176-0.324 0.341-0.49 0.507l-0.389 0.4c-0.076 0.090-0.315 0.331-0.393 0.408l-0.785 0.805c-0.32 0.328-1.546 1.577-0.329 2.806 0.853 0.86 2.182 0.517 2.913-0.206l0.298-0.306c0.025-0.025 0.032-0.041 0.054-0.066l0.526-0.532c0.025-0.025 0.033-0.041 0.054-0.065 0.096-0.105 0.205-0.201 0.298-0.306 0.019-0.022 0.038-0.041 0.058-0.059l0.001-0.001c0.132-0.132 0.413-0.407 0.522-0.537l1.119-1.147c0.025-0.025 0.033-0.038 0.055-0.065l0.585-0.602c0.019-0.022 0.038-0.041 0.059-0.059l0.001-0.001c0.106-0.107 0.446-0.443 0.525-0.542 0.057-0.064 0.117-0.123 0.179-0.179l0.002-0.002c0.218-0.218 0.43-0.446 0.645-0.662 0.020-0.020 0.038-0.041 0.054-0.063l0.001-0.002c0.087-0.105 0.203-0.189 0.287-0.296s0.465-0.457 0.589-0.607l0.529-0.537c0.019-0.018 0.036-0.038 0.051-0.059l0.001-0.001 0.533-0.542c0.043-0.043 0.071-0.082 0.116-0.125 0.083-0.076 0.159-0.154 0.23-0.236l0.003-0.004c0.036-0.042 0.073-0.081 0.114-0.117l0.001-0.001 0.705-0.717c0.043-0.043 0.071-0.082 0.116-0.125 0.161-0.162 0.311-0.321 0.473-0.482 0.041-0.041 0.069-0.079 0.112-0.121l0.353-0.361c0.041-0.041 0.074-0.076 0.116-0.116l0.821-0.847c0.082-0.082 0.15-0.159 0.233-0.241l0.121-0.121c0.043-0.043 0.073-0.082 0.116-0.125 0.161-0.161 0.309-0.317 0.469-0.477l2.334-2.404z" fill="#FFFFFF"></path>
<path d="M26.764 1.214h-0.732c-0.782 0-1.422 0.64-1.422 1.422v26.428c0 0.782 0.64 1.422 1.422 1.422h0.732c0.782 0 1.422-0.64 1.422-1.422v-26.428c0-0.782-0.64-1.422-1.422-1.422z" fill="#FFFFFF"></path>
</svg>
