
<svg aria-hidden="true" style="position:absolute;width:0;height:0;overflow:hidden" xmlns="http://www.w3.org/2000/svg">
	<defs>
<symbol id="icon-arrow-left2" viewBox="0 0 18 32">
<path fill="#000000" d="M0 15.933c0.080 0.094 0.16 0.179 0.245 0.26l0.001 0.001 0.94 0.982c0.028 0.027 0.036 0.044 0.061 0.070 0.061 0.066 0.135 0.124 0.193 0.193l0.313 0.334c0.044 0.044 0.086 0.081 0.128 0.127l0.437 0.456c0.027 0.027 0.034 0.044 0.059 0.070 0.147 0.157 0.302 0.301 0.443 0.46 0.059 0.067 0.138 0.128 0.196 0.197 0.018 0.024 0.037 0.046 0.057 0.066l-0-0 2.332 2.424 0.066 0.066c0.028 0.027 0.036 0.044 0.061 0.070s0.083 0.083 0.127 0.127c0.023 0.021 0.044 0.042 0.063 0.065l0.001 0.001c0.027 0.030 0.033 0.041 0.063 0.070l0.254 0.263c0.042 0.042 0.085 0.081 0.127 0.127l0.437 0.454c0.027 0.028 0.034 0.045 0.061 0.072 0.147 0.157 0.301 0.301 0.442 0.46 0.061 0.069 0.135 0.128 0.197 0.196l0.442 0.46c0.027 0.027 0.034 0.045 0.061 0.072 0.147 0.157 0.299 0.298 0.437 0.454 0.021 0.024 0.042 0.045 0.065 0.065l0.001 0.001 0.507 0.526 0.061 0.061 0.694 0.725c0.060 0.070 0.122 0.134 0.188 0.194l0.002 0.002 0.564 0.592 0.127 0.127 1.005 1.052c0.045 0.045 0.089 0.086 0.132 0.132l0.376 0.395c0.171 0.171 0.33 0.352 0.503 0.521l0.127 0.136c0.089 0.089 0.164 0.175 0.254 0.263l0.313 0.324c0.027 0.027 0.033 0.044 0.061 0.070l0.503 0.521c0.044 0.044 0.092 0.086 0.132 0.132 0.139 0.157 0.288 0.313 0.437 0.456 0.027 0.027 0.034 0.044 0.061 0.070 0.496 0.418 1.665 2.022 3.33 0.371 1.137-1.081 0.29-2.506-0.501-3.207-0.019-0.022-0.034-0.036-0.056-0.058l-0.371-0.381c-0.022-0.023-0.027-0.036-0.052-0.061l-0.846-0.872c-0.020-0.023-0.024-0.034-0.047-0.058l-0.47-0.493-0.108-0.108-0.099-0.108-0.108-0.108-0.626-0.658-0.108-0.107-0.893-0.93c-0.025-0.025-0.030-0.038-0.052-0.061-0.069-0.080-0.147-0.136-0.213-0.219s-0.147-0.139-0.21-0.215-0.141-0.147-0.211-0.219l-0.626-0.658c-0.019-0.020-0.034-0.033-0.052-0.052l-0.691-0.709c-0.022-0.023-0.025-0.034-0.047-0.056s-0.036-0.036-0.056-0.056l-0.523-0.55c-0.019-0.019-0.034-0.033-0.052-0.052l-0.684-0.716c-0.067-0.083-0.143-0.142-0.213-0.219l-0.681-0.709c-0.022-0.025-0.027-0.036-0.052-0.061l-1.048-1.085c-0.108-0.107-0.208-0.229-0.313-0.334l-0.157-0.157c-0.024-0.025-0.028-0.038-0.052-0.061l-0.211-0.221c-0.067-0.077-0.157-0.135-0.21-0.215s-0.146-0.138-0.213-0.218-0.141-0.147-0.211-0.221l-1.051-1.096c0.034-0.040 0.069-0.075 0.106-0.109l0.001-0.001c0.1-0.114 0.213-0.219 0.313-0.329l1.062-1.096c0.074-0.074 0.157-0.144 0.221-0.221l1.067-1.096c0.070-0.070 0.157-0.144 0.216-0.216 0.020-0.024 0.024-0.033 0.047-0.056l0.381-0.39c0.147-0.147 0.28-0.29 0.428-0.437 0.038-0.038 0.072-0.069 0.108-0.108s0.024-0.033 0.047-0.056 0.036-0.036 0.056-0.056c0.072-0.072 0.147-0.141 0.216-0.216l0.423-0.442c0.149-0.157 0.283-0.293 0.432-0.442l0.211-0.221c0.070-0.070 0.157-0.143 0.216-0.216l0.313-0.329c0.022-0.025 0.027-0.036 0.052-0.061l0.056-0.056c0.147-0.147 0.28-0.29 0.428-0.437l0.157-0.164c0.089-0.092 0.193-0.182 0.277-0.277l0.423-0.442c0.147-0.147 0.28-0.29 0.428-0.437 0.036-0.036 0.075-0.070 0.108-0.108 0.1-0.113 0.221-0.216 0.313-0.329l0.103-0.113 0.108-0.108 0.216-0.226c0.147-0.147 0.28-0.29 0.428-0.437 0.075-0.075 0.136-0.146 0.211-0.221s0.157-0.146 0.221-0.221c0.020-0.024 0.024-0.033 0.047-0.056 0.089-0.091 0.188-0.177 0.273-0.272 0.169-0.193 0.354-0.373 0.536-0.554l0.428-0.437c0.083-0.099 0.343-0.362 0.428-0.446l0.858-0.88c0.351-0.359 1.688-1.723 0.36-3.066-0.93-0.94-2.384-0.564-3.182 0.226l-0.324 0.334c-0.028 0.028-0.034 0.044-0.061 0.072l-0.573 0.581c-0.028 0.028-0.036 0.044-0.061 0.070-0.105 0.114-0.222 0.219-0.324 0.334-0.021 0.024-0.042 0.045-0.065 0.065l-0.001 0.001c-0.143 0.144-0.449 0.445-0.569 0.587l-1.222 1.253c-0.028 0.028-0.036 0.042-0.061 0.070l-0.639 0.658-0.066 0.066c-0.117 0.117-0.489 0.484-0.575 0.592-0.063 0.070-0.127 0.135-0.194 0.195l-0.002 0.002c-0.238 0.238-0.47 0.487-0.705 0.724-0.022 0.021-0.042 0.044-0.060 0.069l-0.001 0.002c-0.097 0.114-0.222 0.207-0.313 0.324s-0.506 0.5-0.642 0.662l-0.578 0.587c-0.021 0.020-0.040 0.041-0.057 0.064l-0.001 0.001-0.581 0.592c-0.047 0.047-0.080 0.089-0.127 0.136-0.090 0.082-0.174 0.168-0.252 0.258l-0.003 0.004c-0.040 0.046-0.081 0.088-0.124 0.127l-0.001 0.001-0.771 0.783c-0.049 0.047-0.080 0.089-0.127 0.136-0.177 0.177-0.341 0.351-0.517 0.526-0.045 0.045-0.077 0.086-0.122 0.132l-0.381 0.377-0.127 0.127-0.897 0.926c-0.089 0.089-0.166 0.174-0.254 0.263-0.047 0.045-0.086 0.086-0.132 0.132s-0.080 0.089-0.127 0.136c-0.175 0.175-0.338 0.346-0.514 0.521z"></path>
</symbol>
<symbol id="icon-arrow-right2" viewBox="0 0 18 32">
<path d="M18.477 15.933c-0.080 0.094-0.161 0.179-0.246 0.26l-0.001 0.001-0.94 0.982c-0.028 0.027-0.036 0.044-0.061 0.070-0.061 0.066-0.135 0.124-0.193 0.193l-0.313 0.334c-0.044 0.044-0.086 0.081-0.127 0.127l-0.437 0.456c-0.028 0.027-0.034 0.044-0.061 0.070-0.147 0.157-0.302 0.301-0.442 0.46-0.059 0.067-0.139 0.128-0.197 0.197-0.018 0.024-0.036 0.046-0.056 0.066l-0 0-2.337 2.424c-0.025 0.023-0.042 0.041-0.066 0.066s-0.036 0.044-0.061 0.070-0.083 0.083-0.127 0.127c-0.023 0.021-0.045 0.042-0.065 0.065l-0.001 0.001c-0.025 0.030-0.033 0.041-0.061 0.070l-0.246 0.263c-0.044 0.042-0.086 0.081-0.127 0.127l-0.437 0.454c-0.028 0.028-0.036 0.045-0.061 0.072-0.147 0.157-0.302 0.301-0.442 0.46-0.061 0.069-0.135 0.128-0.197 0.196l-0.442 0.46c-0.027 0.027-0.034 0.045-0.061 0.072-0.147 0.157-0.299 0.298-0.437 0.454-0.022 0.025-0.044 0.044-0.066 0.066l-0.507 0.526-0.061 0.061-0.695 0.725c-0.060 0.070-0.121 0.134-0.186 0.194l-0.002 0.001-0.564 0.592-0.127 0.127-1.005 1.052c-0.045 0.045-0.089 0.086-0.132 0.132l-0.376 0.395c-0.171 0.171-0.332 0.352-0.503 0.521l-0.127 0.136c-0.089 0.089-0.166 0.175-0.255 0.263l-0.313 0.324c-0.025 0.027-0.033 0.044-0.059 0.070l-0.504 0.521c-0.042 0.044-0.091 0.086-0.132 0.132-0.138 0.157-0.288 0.313-0.437 0.456-0.027 0.027-0.034 0.044-0.059 0.070-0.496 0.418-1.665 2.022-3.331 0.371-1.135-1.081-0.29-2.506 0.503-3.207 0.017-0.022 0.034-0.036 0.055-0.058l0.371-0.381c0.022-0.023 0.027-0.036 0.052-0.061l0.846-0.872c0.022-0.023 0.025-0.034 0.047-0.058l0.47-0.493 0.108-0.108 0.099-0.108 0.108-0.108 0.626-0.658 0.11-0.107 0.893-0.93c0.025-0.025 0.030-0.038 0.052-0.061 0.069-0.080 0.147-0.136 0.213-0.219s0.147-0.139 0.208-0.215 0.143-0.147 0.213-0.219l0.626-0.658c0.019-0.020 0.033-0.033 0.052-0.052l0.681-0.709c0.022-0.023 0.025-0.034 0.047-0.056 0.018-0.020 0.036-0.039 0.056-0.056l0.001-0.001 0.531-0.55c0.019-0.019 0.034-0.033 0.052-0.052l0.684-0.716c0.066-0.083 0.141-0.142 0.213-0.219l0.681-0.709c0.022-0.025 0.027-0.036 0.052-0.061l1.048-1.085c0.107-0.107 0.207-0.229 0.313-0.334l0.157-0.157c0.017-0.023 0.034-0.042 0.052-0.061l0.211-0.221c0.067-0.077 0.147-0.135 0.208-0.215s0.147-0.138 0.215-0.218 0.141-0.147 0.211-0.221l1.049-1.096c-0.033-0.040-0.068-0.075-0.104-0.109l-0.001-0.001c-0.1-0.114-0.215-0.219-0.313-0.329l-1.062-1.096c-0.075-0.074-0.157-0.144-0.221-0.221l-1.066-1.096c-0.070-0.070-0.157-0.144-0.216-0.216-0.020-0.024-0.024-0.033-0.047-0.056l-0.381-0.39c-0.147-0.147-0.282-0.29-0.428-0.437-0.038-0.038-0.074-0.069-0.108-0.108s-0.025-0.033-0.047-0.056-0.036-0.036-0.056-0.056c-0.074-0.072-0.147-0.141-0.216-0.216l-0.423-0.442c-0.157-0.157-0.285-0.293-0.432-0.442l-0.211-0.221c-0.070-0.070-0.157-0.143-0.216-0.216l-0.313-0.329c-0.022-0.025-0.027-0.036-0.052-0.061l-0.056-0.056c-0.147-0.147-0.282-0.29-0.428-0.437l-0.157-0.164c-0.089-0.092-0.194-0.182-0.277-0.277l-0.423-0.442c-0.147-0.147-0.282-0.29-0.429-0.437-0.036-0.036-0.074-0.070-0.106-0.108-0.1-0.113-0.221-0.216-0.313-0.329l-0.105-0.113-0.108-0.108-0.216-0.226c-0.146-0.147-0.28-0.29-0.428-0.437-0.075-0.075-0.136-0.146-0.211-0.221s-0.157-0.146-0.221-0.221c-0.020-0.024-0.023-0.033-0.047-0.056-0.089-0.091-0.188-0.177-0.272-0.272-0.169-0.193-0.354-0.373-0.536-0.554l-0.426-0.437c-0.083-0.099-0.345-0.362-0.429-0.446l-0.858-0.88c-0.349-0.359-1.688-1.723-0.36-3.066 0.932-0.94 2.384-0.564 3.182 0.226l0.326 0.334c0.027 0.028 0.034 0.044 0.059 0.072l0.575 0.581c0.027 0.028 0.036 0.044 0.059 0.070 0.105 0.114 0.224 0.219 0.326 0.334 0.021 0.023 0.042 0.045 0.064 0.065l0.001 0.001c0.144 0.144 0.451 0.445 0.57 0.587l1.222 1.253c0.028 0.028 0.036 0.042 0.061 0.070l0.639 0.658c0.021 0.023 0.042 0.045 0.065 0.065l0.001 0.001c0.116 0.117 0.487 0.484 0.573 0.592 0.063 0.070 0.127 0.134 0.195 0.195l0.002 0.002c0.238 0.238 0.47 0.487 0.705 0.724 0.021 0.021 0.041 0.045 0.060 0.069l0.001 0.002c0.096 0.114 0.222 0.207 0.313 0.324s0.507 0.5 0.644 0.662l0.578 0.587c0.021 0.020 0.039 0.041 0.055 0.064l0.001 0.001 0.583 0.592c0.047 0.047 0.078 0.089 0.127 0.136 0.090 0.083 0.173 0.168 0.252 0.258l0.003 0.004c0.039 0.047 0.080 0.088 0.124 0.127l0.001 0.001 0.771 0.783c0.047 0.047 0.078 0.089 0.127 0.136 0.175 0.177 0.34 0.351 0.517 0.526 0.045 0.045 0.075 0.086 0.122 0.132l0.385 0.395c0.044 0.045 0.081 0.083 0.127 0.127l0.897 0.926c0.089 0.089 0.164 0.174 0.254 0.263l0.132 0.132c0.047 0.047 0.080 0.089 0.127 0.136 0.175 0.175 0.337 0.346 0.512 0.521z"></path>
</symbol>
<symbol id="icon-close" viewBox="0 0 32 32">
<path d="M18.828 16l12.586-12.585c0.781-0.781 0.781-2.048 0-2.829s-2.048-0.781-2.829 0v0l-12.585 12.586-12.585-12.586c-0.781-0.781-2.048-0.781-2.829 0s-0.781 2.048 0 2.829l12.586 12.585-12.586 12.585c-0.781 0.781-0.781 2.048 0 2.829s2.048 0.781 2.829 0l12.585-12.586 12.585 12.586c0.781 0.781 2.048 0.781 2.829 0s0.781-2.048 0-2.829l-12.586-12.585z"></path>
</symbol>
<symbol id="icon-up" viewBox="0 0 32 32">
<path d="M15.925 7.017c0.092 0.078 0.175 0.156 0.253 0.239l0.001 0.001 0.955 0.914c0.026 0.027 0.043 0.035 0.069 0.059 0.064 0.059 0.12 0.131 0.187 0.187l0.325 0.305c0.043 0.043 0.079 0.084 0.123 0.123l0.443 0.425c0.026 0.027 0.043 0.034 0.069 0.059 0.152 0.143 0.293 0.294 0.448 0.43 0.066 0.058 0.125 0.136 0.192 0.192 0.024 0.017 0.045 0.035 0.064 0.055l0 0 2.359 2.273c0.023 0.024 0.040 0.041 0.064 0.064s0.043 0.035 0.069 0.059 0.081 0.081 0.123 0.123c0.020 0.023 0.041 0.044 0.063 0.063l0.001 0.001c0.029 0.024 0.040 0.032 0.069 0.059l0.256 0.239c0.041 0.043 0.079 0.084 0.123 0.123l0.442 0.425c0.027 0.027 0.044 0.035 0.070 0.059 0.152 0.143 0.293 0.294 0.448 0.43 0.067 0.059 0.125 0.131 0.19 0.192l0.448 0.43c0.026 0.026 0.044 0.034 0.070 0.059 0.152 0.143 0.29 0.291 0.442 0.425 0.024 0.021 0.043 0.043 0.064 0.064l0.512 0.494 0.059 0.059 0.705 0.677c0.069 0.058 0.131 0.118 0.189 0.181l0.001 0.001 0.576 0.549 0.123 0.123 1.024 0.978c0.044 0.044 0.084 0.087 0.128 0.128l0.384 0.366c0.166 0.166 0.343 0.323 0.507 0.489l0.133 0.123c0.087 0.087 0.171 0.162 0.256 0.248l0.315 0.305c0.026 0.024 0.043 0.032 0.069 0.058l0.507 0.491c0.043 0.041 0.084 0.088 0.128 0.128 0.152 0.134 0.305 0.28 0.443 0.425 0.026 0.026 0.043 0.034 0.069 0.058 0.407 0.483 1.967 1.62 0.361 3.241-1.051 1.105-2.438 0.282-3.121-0.489-0.021-0.017-0.035-0.034-0.056-0.053l-0.37-0.361c-0.023-0.021-0.035-0.026-0.059-0.050l-0.849-0.823c-0.023-0.021-0.034-0.024-0.056-0.046l-0.48-0.457-0.105-0.105-0.105-0.096-0.105-0.105-0.64-0.609-0.104-0.107-0.905-0.869c-0.024-0.024-0.037-0.029-0.059-0.050-0.078-0.067-0.133-0.143-0.213-0.207s-0.136-0.143-0.209-0.203-0.143-0.139-0.213-0.207l-0.64-0.609c-0.020-0.018-0.032-0.032-0.050-0.050l-0.69-0.663c-0.023-0.021-0.034-0.024-0.055-0.046-0.020-0.017-0.038-0.035-0.054-0.054l-0.001-0.001-0.535-0.517c-0.018-0.018-0.032-0.034-0.050-0.050l-0.696-0.666c-0.081-0.064-0.139-0.137-0.213-0.207l-0.69-0.663c-0.024-0.021-0.035-0.026-0.059-0.050l-1.056-1.019c-0.104-0.104-0.222-0.201-0.325-0.305l-0.152-0.152c-0.022-0.016-0.041-0.033-0.060-0.050l-0.215-0.206c-0.075-0.066-0.131-0.143-0.209-0.203s-0.134-0.143-0.212-0.209-0.143-0.137-0.215-0.206l-1.067-1.021c-0.039 0.032-0.073 0.066-0.106 0.101l-0.001 0.001c-0.111 0.098-0.213 0.209-0.32 0.305l-1.067 1.033c-0.072 0.073-0.14 0.152-0.215 0.215l-1.067 1.038c-0.069 0.069-0.14 0.152-0.21 0.21-0.023 0.020-0.032 0.023-0.055 0.046l-0.379 0.37c-0.143 0.143-0.282 0.274-0.425 0.416-0.037 0.037-0.067 0.072-0.105 0.105s-0.032 0.024-0.055 0.046-0.035 0.035-0.055 0.055c-0.070 0.072-0.137 0.143-0.21 0.21l-0.43 0.411c-0.152 0.152-0.285 0.277-0.43 0.421l-0.215 0.206c-0.069 0.069-0.139 0.152-0.21 0.21l-0.32 0.305c-0.024 0.021-0.035 0.026-0.059 0.050l-0.055 0.055c-0.143 0.143-0.282 0.274-0.425 0.416l-0.16 0.152c-0.090 0.087-0.177 0.189-0.27 0.27l-0.43 0.411c-0.143 0.143-0.282 0.274-0.425 0.418-0.035 0.035-0.069 0.072-0.105 0.104-0.11 0.098-0.21 0.215-0.32 0.305l-0.11 0.102-0.105 0.105-0.219 0.21c-0.143 0.142-0.282 0.273-0.425 0.416-0.073 0.073-0.142 0.133-0.215 0.206s-0.142 0.152-0.215 0.215c-0.023 0.020-0.032 0.023-0.055 0.046-0.088 0.087-0.172 0.183-0.265 0.265-0.187 0.165-0.363 0.344-0.539 0.521l-0.425 0.414c-0.096 0.081-0.352 0.335-0.434 0.418l-0.856 0.835c-0.349 0.34-1.676 1.643-2.983 0.35-0.914-0.907-0.549-2.319 0.219-3.096l0.325-0.317c0.027-0.026 0.043-0.034 0.070-0.058l0.565-0.559c0.027-0.026 0.043-0.035 0.069-0.058 0.111-0.102 0.213-0.218 0.325-0.317 0.023-0.020 0.044-0.040 0.063-0.062l0.001-0.001c0.14-0.14 0.433-0.439 0.571-0.555l1.219-1.189c0.027-0.027 0.041-0.035 0.069-0.059l0.64-0.622c0.023-0.020 0.044-0.041 0.063-0.063l0.001-0.001c0.114-0.113 0.471-0.474 0.576-0.558 0.068-0.061 0.131-0.124 0.19-0.19l0.002-0.002c0.232-0.232 0.474-0.457 0.704-0.686 0.021-0.021 0.043-0.040 0.067-0.058l0.002-0.001c0.111-0.093 0.201-0.216 0.315-0.305s0.486-0.494 0.645-0.626l0.571-0.562c0.019-0.020 0.040-0.038 0.063-0.054l0.001-0.001 0.576-0.567c0.046-0.046 0.087-0.076 0.133-0.123 0.081-0.088 0.164-0.169 0.251-0.245l0.004-0.003c0.045-0.038 0.086-0.078 0.124-0.121l0.001-0.001 0.762-0.75c0.046-0.046 0.087-0.076 0.133-0.123 0.172-0.171 0.341-0.331 0.512-0.503 0.044-0.044 0.084-0.073 0.128-0.119l0.384-0.375c0.044-0.043 0.081-0.079 0.123-0.123l0.9-0.873c0.087-0.087 0.169-0.16 0.256-0.247l0.128-0.128c0.046-0.046 0.087-0.078 0.133-0.123 0.171-0.171 0.337-0.328 0.507-0.498z"></path></symbol>
</defs>
</svg>
